<?xml version="1.0" encoding="UTF-8"?>
<svg version="1.1" xmlns="http://www.w3.org/2000/svg" width="2048" height="1750">
<path d="M0 0 C675.84 0 1351.68 0 2048 0 C2048 675.84 2048 1351.68 2048 2048 C1372.16 2048 696.32 2048 0 2048 C0 1372.16 0 696.32 0 0 Z " fill="transparent" transform="translate(0,0)"/>
<path d="M0 0 C1.86507875 -0.00269978 3.73015613 -0.00658623 5.5952301 -0.01159668 C9.49111421 -0.01747032 13.3866297 -0.00899896 17.2824707 0.00976562 C22.24968336 0.03253795 27.21603046 0.01942938 32.18321133 -0.00452423 C36.03109631 -0.01905378 39.8787798 -0.01434333 43.72667122 -0.00401306 C45.55690682 -0.00136467 47.38716134 -0.00454825 49.2173748 -0.01393127 C62.16250686 -0.06574188 73.01566696 0.39753082 83.0625 9.5546875 C87.70871445 14.79073318 90.45917825 20.75803579 93.25390625 27.09375 C93.65077637 27.98344482 94.04764648 28.87313965 94.45654297 29.78979492 C97.02783049 35.60284293 99.37031995 41.46930411 101.58984375 47.42578125 C103.1975417 51.49622669 105.0628512 55.42573575 106.9453125 59.37524414 C109.58628971 64.95119147 112.02678179 70.60407948 114.44140625 76.28125 C117.84068833 84.27013039 121.30265133 92.21715572 125.015625 100.06640625 C127.83468896 106.10471675 130.22191985 112.22231166 132.51098633 118.47387695 C134.55292994 123.98379013 136.93470824 129.28359993 139.453125 134.59375 C140.65040469 137.17356183 141.72901202 139.75460875 142.75390625 142.40625 C144.1175335 145.91999489 145.64845998 149.31360905 147.28417969 152.70922852 C150.56344129 159.52102084 153.32348884 166.36083361 155.68701172 173.54516602 C157.08163385 177.72143644 158.74962697 181.5860757 160.77026367 185.49780273 C162.56471007 188.98577101 164.21153357 192.54375615 165.87890625 196.09375 C166.21728516 196.80982422 166.55566406 197.52589844 166.90429688 198.26367188 C168.96807964 202.65070718 170.93008965 207.06504077 172.81640625 211.53125 C173.21601562 212.46066406 173.615625 213.39007812 174.02734375 214.34765625 C176.82611803 220.95013383 179.30291326 227.61057774 181.60546875 234.40234375 C182.7550832 237.37279916 184.14853994 239.82983887 185.81640625 242.53125 C186.47798781 244.05757596 187.1033083 245.60013242 187.69140625 247.15625 C189.08357249 250.73685939 190.57164981 254.23523536 192.19140625 257.71875 C194.21246572 262.10184523 196.04758025 266.5417178 197.81640625 271.03125 C199.92632937 276.38364332 202.18427577 281.63865349 204.6015625 286.859375 C207.23173485 292.64406274 209.60084175 298.54466436 211.99609375 304.4296875 C214.2707418 309.97507131 216.68400311 315.4292709 219.25390625 320.84375 C221.93393962 326.49419594 224.34339028 332.20462253 226.6081543 338.03295898 C228.25971923 342.24857709 230.10684114 346.32579964 232.06640625 350.40625 C234.44469593 355.44299438 235.88690885 360.04721533 236.81640625 365.53125 C237.47640625 365.53125 238.13640625 365.53125 238.81640625 365.53125 C239.20119141 366.46517578 239.20119141 366.46517578 239.59375 367.41796875 C241.67470726 372.44169386 243.77685131 377.45314335 245.94140625 382.44140625 C249.47669108 390.59917429 252.97372391 398.73289949 256.00390625 407.09375 C258.10867567 412.89145277 260.59509085 418.37127762 263.43359375 423.84765625 C265.86403728 428.56436445 268.10227782 433.33785555 269.74609375 438.38671875 C272.49705609 446.46892562 276.40282162 454.23186003 280.81640625 461.53125 C285.90142471 461.30832582 285.90142471 461.30832582 289.85546875 458.41015625 C291.98007814 455.29095879 293.50580712 452.12539344 294.94140625 448.65625 C295.54524557 447.23683987 296.1494341 445.81757825 296.75390625 444.3984375 C297.08003906 443.6259668 297.40617187 442.85349609 297.7421875 442.05761719 C299.34302138 438.29274697 300.98547158 434.546288 302.6237793 430.79760742 C306.8961332 421.01718635 311.10134562 411.21698489 315.1171875 401.328125 C315.55417969 400.26078125 315.99117187 399.1934375 316.44140625 398.09375 C316.82554687 397.14628906 317.2096875 396.19882812 317.60546875 395.22265625 C318.81640625 392.53125 318.81640625 392.53125 320.3359375 390.03125 C321.89514967 387.39827959 322.88593767 384.8592132 323.87890625 381.96875 C325.01061165 378.69180384 326.19323404 375.59724195 327.81640625 372.53125 C328.47640625 372.53125 329.13640625 372.53125 329.81640625 372.53125 C330.07808594 371.37109375 330.33976562 370.2109375 330.609375 369.015625 C331.68850691 364.70667687 333.28212402 360.81022896 335.12890625 356.78125 C335.75218577 355.39102085 336.37457248 354.00039109 336.99609375 352.609375 C337.30256836 351.92681641 337.60904297 351.24425781 337.92480469 350.54101562 C339.97939891 345.90973971 341.89055852 341.21718365 343.81640625 336.53125 C344.47640625 336.53125 345.13640625 336.53125 345.81640625 336.53125 C346.00976562 335.45423828 346.00976562 335.45423828 346.20703125 334.35546875 C347.59505707 327.92250291 350.07912315 321.78648806 353.12890625 315.96875 C355.53179257 311.33987696 357.40281366 306.58606431 359.25390625 301.71875 C361.67981465 295.34927238 364.30409815 289.15531285 367.22265625 282.9921875 C369.16524513 278.77372243 370.96401293 274.5037495 372.75390625 270.21875 C382.36360168 247.26402901 382.36360168 247.26402901 387.31640625 237.65625 C390.39088178 231.6242253 392.86042527 225.4731279 395.25952148 219.14648438 C398.61057552 210.34585047 402.5902513 201.91163187 406.87890625 193.53125 C409.3729468 188.58816448 411.38906479 183.58450761 413.31640625 178.3984375 C416.50886364 169.99071566 420.23780945 161.77992147 423.81640625 153.53125 C424.47640625 153.53125 425.13640625 153.53125 425.81640625 153.53125 C425.7390625 152.46777344 425.7390625 152.46777344 425.66015625 151.3828125 C425.8461596 147.98825142 426.80714655 145.94885332 428.31640625 142.90625 C431.00192763 137.3261926 433.45301669 131.69233672 435.81640625 125.96875 C438.05453768 120.56843431 440.36842363 115.28532262 443.06640625 110.09375 C444.99093641 106.37333475 446.4590808 102.78362873 447.69140625 98.78125 C449.46778422 93.11305638 451.96484619 88.06412523 454.6809082 82.80786133 C457.5210181 77.25944991 459.92368486 71.60349991 462.23925781 65.81982422 C464.13139352 61.11962137 466.18419915 56.53477754 468.37890625 51.96875 C470.82682624 46.86919868 472.90595043 41.72932431 474.81640625 36.40625 C480.02696739 22.13069275 486.6692661 10.54487471 499.89453125 2.40625 C504.45761535 0.3287483 509.15344016 0.39688936 514.09449768 0.37062073 C514.81717534 0.36553291 515.53985299 0.36044509 516.28442997 0.35520309 C518.70076726 0.33953458 521.11707475 0.33096835 523.53344727 0.32250977 C525.26838874 0.31296668 527.00332833 0.30307532 528.73826599 0.29286194 C534.43225866 0.26152618 540.1262657 0.24121408 545.8203125 0.22265625 C546.79044997 0.21935893 547.76058744 0.21606161 548.76012301 0.21266437 C557.91682573 0.18188333 567.07353186 0.15518796 576.23027134 0.13824558 C587.9226048 0.11635439 599.61447822 0.07440696 611.30662781 0.00480801 C619.53869252 -0.04252173 627.77063351 -0.0667 636.00282997 -0.0739513 C640.91397511 -0.07889429 645.82460122 -0.09384605 650.73559761 -0.1336956 C655.36100343 -0.17073386 659.98559745 -0.17891569 664.61112404 -0.16568947 C666.30091866 -0.16574313 667.99075086 -0.17592321 669.68040848 -0.1974411 C680.80634939 -0.33146027 690.38763257 0.72422166 699.03833866 8.53829288 C700.8437482 10.43497421 702.33363876 12.37524824 703.81640625 14.53125 C704.24824219 15.10101562 704.68007812 15.67078125 705.125 16.2578125 C709.22885685 22.70470181 709.07134065 31.2052876 707.81640625 38.53125 C706.28004055 43.05199379 704.1916067 47.15196582 701.94628906 51.34521484 C699.72823371 55.63658642 697.79666519 60.06403728 695.81640625 64.46875 C695.38900146 65.41032959 694.96159668 66.35190918 694.52124023 67.32202148 C691.67782355 73.5879588 688.89091793 79.87657672 686.1484375 86.18725586 C684.18869398 90.69524921 682.16818514 95.17181111 680.12109375 99.640625 C678.52682115 103.17284574 676.98523336 106.72676884 675.44140625 110.28125 C672.92942498 116.0533181 670.32734383 121.77459747 667.65063477 127.47265625 C661.35962044 140.88058571 655.25039813 154.35130329 649.58105469 168.03442383 C647.33721492 173.40852321 644.84791669 178.60301546 642.1796875 183.78125 C640.28305934 187.60711312 638.69493593 191.5386485 637.0859375 195.4921875 C635.80150665 198.56691735 634.42029561 201.57771874 633.00390625 204.59375 C630.50044645 209.96014075 628.16335034 215.38075883 625.87890625 220.84375 C620.78261958 233.01579271 615.62388779 245.05013768 609.64453125 256.8203125 C607.51375349 261.08419928 605.56418869 265.4258469 603.62890625 269.78125 C603.30801025 270.5016748 602.98711426 271.22209961 602.65649414 271.96435547 C601.01023213 275.69894313 599.44067546 279.45242356 597.9453125 283.25 C595.46223525 289.50921051 592.69653565 295.63810846 589.94140625 301.78125 C586.73832633 308.94586907 583.54170404 316.10736989 580.50390625 323.34375 C578.66303923 327.68905238 576.65332489 331.89261357 574.50390625 336.09375 C568.98278582 346.96573605 564.39595817 358.27328361 559.74609375 369.5390625 C556.70051582 376.89654932 553.59831381 384.14215942 549.94140625 391.21875 C545.98729783 398.87148269 542.73073415 406.7731038 539.46411133 414.73901367 C536.64562893 421.59617843 533.65696776 428.32411856 530.46875 435.015625 C528.32017543 439.58706025 526.30665504 444.21183109 524.2956543 448.8449707 C522.71362062 452.48724469 521.10487805 456.11266217 519.44140625 459.71875 C517.00608786 465.02998714 514.72866489 470.40517004 512.44140625 475.78125 C509.24568461 483.28706487 505.91241874 490.70174307 502.421875 498.07421875 C500.85434385 501.44955955 499.38532794 504.85144149 497.94140625 508.28125 C494.51203488 516.37456643 490.71034437 524.28266683 486.92138672 532.21240234 C485.24603629 535.72819518 483.59051289 539.25308519 481.94140625 542.78125 C481.40773438 543.92078125 480.8740625 545.0603125 480.32421875 546.234375 C477.74071001 551.88329049 475.35877641 557.61599543 472.96118164 563.34545898 C469.99864479 570.42164528 467.01042729 577.46726659 463.7265625 584.40234375 C462.85758371 586.43493362 462.2831622 588.3743462 461.81640625 590.53125 C461.15640625 590.53125 460.49640625 590.53125 459.81640625 590.53125 C459.42453125 591.789375 459.03265625 593.0475 458.62890625 594.34375 C457.14749978 598.78111104 455.31066372 602.95060567 453.328125 607.18359375 C451.79232422 610.58457895 450.37554942 614.01917395 448.96582031 617.47363281 C442.64974599 632.8573982 436.08812164 647.30443857 420.17578125 654.55859375 C419.3971875 654.87957031 418.61859375 655.20054687 417.81640625 655.53125 C417.07447903 655.87593417 416.3325518 656.22061834 415.56814194 656.57574749 C412.36761204 657.68708764 409.81584153 657.78573548 406.42926025 657.79194641 C405.13961365 657.79903122 403.84996704 657.80611603 402.52124023 657.81341553 C401.09912074 657.81112185 399.67700158 657.80861217 398.25488281 657.8059082 C396.75152331 657.81025729 395.24816602 657.8154411 393.74481201 657.82139587 C389.66609647 657.8347791 385.58747364 657.83536507 381.50874043 657.83283257 C378.09945995 657.83176194 374.69019816 657.83664883 371.2809217 657.841438 C363.23316533 657.85253184 355.18545563 657.85297193 347.13769531 657.84692383 C338.84833641 657.84088963 330.55914749 657.8531812 322.26981759 657.8744939 C315.14350946 657.89213953 308.01725528 657.89810641 300.89092612 657.89485615 C296.63901127 657.89304714 292.38721755 657.89564081 288.13532257 657.90957069 C284.13303616 657.92219193 280.13101337 657.92016458 276.12873077 657.90715981 C274.66507883 657.90480342 273.20140809 657.9074949 271.73777771 657.91578293 C256.33322896 657.99667815 247.07796728 654.26848444 235.62890625 643.96875 C228.10082735 636.07787211 224.46728051 624.89491038 220.44116211 614.92675781 C216.02877708 604.02571615 210.87741356 593.49210667 205.4921875 583.04296875 C204.24569426 580.43085354 203.13843614 577.87903672 202.0859375 575.19140625 C199.03853975 567.44730229 195.58249899 559.8791747 192.19140625 552.28125 C191.47061604 550.66222952 190.7499136 549.04316997 190.02929688 547.42407227 C185.78054117 537.88665435 181.48013665 528.37433789 177.13134766 518.88208008 C174.14557311 512.33340027 171.33623089 505.71962505 168.57006836 499.07568359 C166.31742767 493.67736042 163.94049448 488.35362412 161.453125 483.05859375 C160.13921677 480.22694904 158.8545039 477.3871663 157.5859375 474.53515625 C157.19075928 473.64820068 156.79558105 472.76124512 156.38842773 471.84741211 C155.61037337 470.09817832 154.83499449 468.34775116 154.06274414 466.59594727 C152.45029543 462.97842557 150.82958272 459.45434262 148.79296875 456.0546875 C146.82822788 452.71400823 145.47374999 449.25942925 144.07568359 445.65087891 C142.48732887 441.71602107 140.76279313 437.85050054 139.0234375 433.98046875 C138.67358795 433.20178436 138.3237384 432.42309998 137.96328735 431.62081909 C137.23021749 429.99145719 136.49655176 428.36236326 135.7623291 426.73352051 C124.69690618 402.18222513 124.69690618 402.18222513 119.59301758 389.94799805 C116.65633844 382.96078091 113.21424703 376.25072393 109.75390625 369.51171875 C106.72825763 363.60876011 103.7934551 357.76714851 101.50390625 351.53125 C97.98236584 341.96261999 93.49315801 332.8040348 89.2109375 323.55859375 C87.13080808 319.04290664 85.09681921 314.50695681 83.06640625 309.96875 C80.49852644 304.23190126 77.88294845 298.52353984 75.19140625 292.84375 C72.72846819 287.61142537 70.47774168 282.33186372 68.31640625 276.96875 C65.65968287 270.38278636 62.67801778 264.06295799 59.4453125 257.7421875 C56.34602133 251.6327934 53.55461454 245.42033578 51.046875 239.046875 C48.49019678 232.62456588 45.65539677 226.33272389 42.81640625 220.03125 C42.24395063 218.75692955 41.67152274 217.48259665 41.09912109 216.20825195 C36.77537018 206.59672854 32.36783307 197.02488042 27.93139648 187.46484375 C24.88201539 180.88198784 21.92069077 174.2695609 19.04980469 167.60717773 C17.18230005 163.2959863 15.13021641 159.11314905 12.98828125 154.93359375 C11.21057399 151.28929387 9.72317134 147.53407448 8.19140625 143.78125 C6.70006233 140.25625527 5.08458615 136.79945377 3.44140625 133.34375 C0.8621562 127.91108595 -1.49687243 122.42077387 -3.74609375 116.84375 C-6.09404576 111.03722331 -8.65439363 105.44125502 -11.52734375 99.87109375 C-13.66419022 95.56212268 -15.60696664 91.17653184 -17.55859375 86.78125 C-20.2527698 80.72272161 -23.03298196 74.74345988 -26.05859375 68.84375 C-29.56214315 61.90440937 -32.92589473 54.90174972 -36.18359375 47.84375 C-36.67714355 46.8225708 -37.17069336 45.8013916 -37.67919922 44.74926758 C-41.5757128 36.15555861 -42.751903 27.57677841 -40.24609375 18.34375 C-36.64658231 10.4214608 -30.54656876 4.47810857 -22.49339294 1.37652588 C-15.17032322 -0.4936825 -7.51101877 -0.03845775 0 0 Z " fill="#4F07D1" transform="translate(689.18359375,561.46875)"/>
<path d="M0 0 C1.17042847 0.36109863 1.17042847 0.36109863 2.36450195 0.72949219 C32.27869971 10.26304035 60.24818858 30.6182038 75.0390625 58.7109375 C75.43867187 59.48695313 75.83828125 60.26296875 76.25 61.0625 C76.73210937 61.94164062 77.21421875 62.82078125 77.7109375 63.7265625 C89.71793427 86.33872394 91.86680696 110.7941378 91.75482833 135.96434081 C91.74354096 139.51916788 91.7557646 143.0739314 91.76501465 146.62875366 C91.77800554 152.7665998 91.77701211 158.90430928 91.76642036 165.04215813 C91.7513692 173.93020706 91.76147735 182.81809831 91.77793955 191.70613844 C91.80430163 206.15085768 91.81526301 220.59554118 91.81420898 235.0402832 C91.8141215 236.3325783 91.8141215 236.3325783 91.81403225 237.65098036 C91.81376639 241.14189748 91.8134491 244.63281459 91.81306899 248.1237317 C91.81210134 257.74825977 91.8134333 267.37278675 91.81616211 276.99731445 C91.816402 277.85989945 91.81664189 278.72248444 91.81688906 279.61120837 C91.82130215 294.01618992 91.8375563 308.42113838 91.8613829 322.82610041 C91.87540721 331.68864758 91.87837538 340.55106853 91.86676001 349.41361994 C91.85941336 355.48410144 91.86253043 361.55451943 91.87371845 367.62499487 C91.87976285 371.12039261 91.88095778 374.61561227 91.86884117 378.11099815 C91.85816714 381.9109415 91.866012 385.71043151 91.87818909 389.51036072 C91.87061303 390.59889924 91.86303698 391.68743775 91.85523134 392.80896229 C91.99478338 413.45671771 100.94481921 429.66131128 115.25 444.0625 C129.11469186 457.17484424 149.15713165 463.16971564 167.48828125 466.46484375 C170.61104575 467.52422949 171.66548958 470.33058549 173.25 473.0625 C174.54228141 476.93934422 174.43214398 480.63362844 174.453125 484.67578125 C174.45882507 485.52295212 174.46452515 486.37012299 174.47039795 487.2429657 C174.47984202 489.03590651 174.48637958 490.82886463 174.49023438 492.62182617 C174.49992663 495.35431508 174.53094962 498.08604738 174.5625 500.81835938 C174.56903178 502.56249555 174.57428157 504.30663708 174.578125 506.05078125 C174.5904718 506.86347977 174.6028186 507.67617828 174.61553955 508.51350403 C174.59006925 515.05420141 172.85383377 520.03216352 168.125 524.75 C162.95200533 529.12493044 156.96294014 529.53174263 150.46875 530.359375 C133.57536925 532.73844974 117.84116064 545.32930687 107.25 558.0625 C98.92375201 569.1796691 92.14306417 581.87911117 92.11692142 596.08399677 C92.11268038 597.07685257 92.10843933 598.06970837 92.10406977 599.09265071 C92.1044559 600.17609285 92.10484203 601.25953499 92.10523987 602.37580872 C92.0999496 604.11100196 92.0999496 604.11100196 92.09455246 605.88124961 C92.08572479 609.08851772 92.08130702 612.29575733 92.07870948 615.50303543 C92.07480939 618.96409889 92.06517191 622.42514671 92.05615234 625.88619995 C92.0412197 631.88511142 92.02967183 637.88402165 92.02020454 643.88294411 C92.00631171 652.57379597 91.98511931 661.26461894 91.96177601 669.95545002 C91.92385684 684.07893575 91.88889795 698.20242673 91.85717773 712.32592773 C91.854327 713.59387884 91.854327 713.59387884 91.85141867 714.88744511 C91.82463092 726.86281902 91.80074561 738.83819698 91.77803367 750.81357922 C91.77643637 751.65554486 91.77483906 752.49751049 91.77319336 753.36499023 C91.77159989 754.20592391 91.77000643 755.04685758 91.76836468 755.91327409 C91.74153 769.97088508 91.70710011 784.0284655 91.66653961 798.08604354 C91.64185628 806.74563165 91.6234786 815.405187 91.613384 824.06480464 C91.60595194 830.01070567 91.59136437 835.95656267 91.57131977 841.90243445 C91.5600104 845.3251435 91.55178895 848.74778183 91.55232811 852.17051125 C91.54717122 869.75740404 91.14559978 886.5365851 86.5625 903.625 C86.30194824 904.60460693 86.04139648 905.58421387 85.77294922 906.59350586 C83.45198106 914.95903456 80.37512016 922.42274258 76.25 930.0625 C75.77409424 930.96452148 75.77409424 930.96452148 75.28857422 931.88476562 C71.02940766 939.92349154 66.24138344 947.18514488 60.25 954.0625 C59.50105469 954.95582031 58.75210937 955.84914063 57.98046875 956.76953125 C51.78404423 963.92695214 44.94582382 969.6414452 37.25 975.0625 C36.69828125 975.45711426 36.1465625 975.85172852 35.578125 976.25830078 C27.02607892 982.31017217 18.19802832 986.58972088 8.39697266 990.24951172 C6.31461927 991.0380308 4.25793756 991.87465421 2.19921875 992.72265625 C-13.01343529 998.78754437 -29.09928694 1000.25729439 -45.375 1000.4375 C-46.24543945 1000.45151855 -47.11587891 1000.46553711 -48.01269531 1000.47998047 C-52.69920582 1000.44375893 -56.09417619 1000.29599038 -59.75 997.0625 C-63.74981244 991.34987589 -64.34417755 987.06645156 -64.28125 980.18359375 C-64.2850769 979.25329849 -64.28890381 978.32300323 -64.29284668 977.36451721 C-64.2955568 975.40714428 -64.28825895 973.44973457 -64.27148438 971.49243164 C-64.25003732 968.50519824 -64.27132902 965.520363 -64.296875 962.53320312 C-64.29423204 960.62499472 -64.28910771 958.7167878 -64.28125 956.80859375 C-64.28934692 955.92094833 -64.29744385 955.03330292 -64.30578613 954.11875916 C-64.22079101 948.47082621 -63.39188326 945.42605864 -59.75 941.0625 C-54.53269541 936.54990243 -48.18464868 936.69489017 -41.61328125 936.3984375 C-34.78471481 935.80464911 -28.32720423 933.92142935 -21.75 932.0625 C-20.89535156 931.84851562 -20.04070312 931.63453125 -19.16015625 931.4140625 C-5.09256817 927.49650632 5.99385717 916.29366292 13.25 904.0625 C13.61867188 903.45019531 13.98734375 902.83789062 14.3671875 902.20703125 C22.44601551 887.52109972 21.82151992 872.14756941 21.74016929 855.87512326 C21.72687455 852.318019 21.73698957 848.76096836 21.74427795 845.20385742 C21.75391663 839.05118206 21.74954373 832.89864884 21.7358551 826.74598312 C21.71639097 817.82873267 21.72297923 808.91164 21.73642892 799.9943852 C21.75797048 785.49445862 21.76473382 770.99456946 21.75927734 756.49462891 C21.75895671 755.62855139 21.75863608 754.76247388 21.75830573 753.87015159 C21.7555946 746.84768785 21.7521647 739.82522449 21.74870014 732.80276108 C21.74570552 726.67270672 21.74299686 720.54265233 21.74072266 714.41259766 C21.74039715 713.54940715 21.74007163 712.68621664 21.73973626 711.79686885 C21.73477765 697.35474793 21.74553783 682.91267876 21.76729441 668.47057402 C21.77992514 659.58691399 21.77865676 650.70346892 21.75884354 641.81982084 C21.74614582 635.72165259 21.74777964 629.62359249 21.76021707 623.52542417 C21.76686644 620.01902169 21.76726564 616.51293656 21.7496357 613.00656509 C21.67044693 593.85116383 23.16979363 576.3031191 29.25 558.0625 C29.91 558.0625 30.57 558.0625 31.25 558.0625 C31.35570312 557.2065625 31.46140625 556.350625 31.5703125 555.46875 C33.86381888 543.97485595 41.57478927 534.39232704 48.93847656 525.62744141 C49.81070591 524.58667631 50.67218029 523.53679967 51.52246094 522.47802734 C60.12502978 511.83058558 72.85456957 503.69835819 85.25 498.0625 C86.24 498.0625 87.23 498.0625 88.25 498.0625 C88.25 497.4025 88.25 496.7425 88.25 496.0625 C87.52039062 495.95035156 86.79078125 495.83820313 86.0390625 495.72265625 C81.20488392 494.57843191 77.37502196 491.75144698 73.25 489.0625 C72.39148437 488.50691406 71.53296875 487.95132812 70.6484375 487.37890625 C58.56478512 479.09144555 48.03018144 468.36591302 40.359375 455.86865234 C39.58166888 454.60248379 38.78861242 453.34567601 37.984375 452.09619141 C30.79860295 440.86049709 27.12718054 430.03477816 24.77734375 416.93164062 C24.47567875 415.29035958 24.15296331 413.65192318 23.76913565 412.02789068 C22.22539217 405.20899792 21.97649443 398.71661956 22.01863098 391.74377441 C22.01777754 390.53919885 22.0169241 389.33462329 22.0160448 388.09354544 C22.01553971 384.7759323 22.02388232 381.45855829 22.0359391 378.14098167 C22.04669996 374.55250807 22.04569169 370.96403631 22.04586792 367.37554932 C22.04746425 361.16281055 22.05553845 354.95010827 22.0673008 348.73738098 C22.08523884 338.90217291 22.08126001 329.06702833 22.07365417 319.23181152 C22.07129926 315.86035925 22.06905944 312.4889069 22.06683636 309.11745453 C22.06627182 308.27498595 22.06570729 307.43251737 22.06512565 306.56451944 C22.05893942 296.98702374 22.05658419 287.40952885 22.05639648 277.83203125 C22.05637305 276.95718588 22.05634961 276.08234051 22.05632546 275.18098468 C22.05657563 261.01912218 22.07567447 246.85733318 22.09999315 232.69549447 C22.12437546 218.12465613 22.1218263 203.55398064 22.09631175 188.98314428 C22.08157467 180.01363164 22.08838468 171.044669 22.12361284 162.07521099 C22.14591549 155.91806977 22.14241795 149.7612713 22.11931346 143.60413462 C22.10680591 140.06132461 22.10519502 136.51946674 22.13489723 132.97673798 C22.25849096 117.25815422 21.55539323 104.17734063 14.25 90.0625 C13.68496167 88.96904518 13.11992334 87.87559036 12.53776264 86.74900055 C6.20287217 75.21296198 -4.93460194 68.12143999 -16.75 63.0625 C-17.48089844 62.74667969 -18.21179687 62.43085938 -18.96484375 62.10546875 C-25.74824069 59.3786775 -32.32283224 58.07185239 -39.63354492 57.77539062 C-53.61093028 57.19494781 -53.61093028 57.19494781 -58.75 53.0625 C-63.75276539 47.32540113 -64.50574336 43.27754655 -64.44921875 35.78125 C-64.45637405 34.80893433 -64.46352936 33.83661865 -64.47090149 32.83483887 C-64.47865522 30.78752555 -64.47371592 28.7401291 -64.45678711 26.69287109 C-64.43755235 23.57099686 -64.47698926 20.45357219 -64.52148438 17.33203125 C-64.52177475 15.33593487 -64.51863438 13.33983442 -64.51171875 11.34375 C-64.52700119 10.41751831 -64.54228363 9.49128662 -64.55802917 8.5369873 C-64.45425899 2.7295878 -63.35965971 -0.4005887 -59.32945251 -4.62884521 C-46.10186331 -15.58855926 -14.33029208 -4.44613275 0 0 Z " fill="#4C05D0" transform="translate(1486.75,371.9375)"/>
<path d="M0 0 C1.61841264 -0.04455536 3.23690674 -0.08624869 4.85546875 -0.125 C5.60981201 -0.15505127 6.36415527 -0.18510254 7.14135742 -0.21606445 C12.33628586 -0.26893756 15.29011515 0.67814329 19.35546875 4.1875 C23.06027337 8.79463675 22.80757365 13.22157368 22.7890625 18.87109375 C22.79430435 19.8042189 22.7995462 20.73734406 22.8049469 21.69874573 C22.81135721 23.6680502 22.81004294 25.63739302 22.80151367 27.60668945 C22.79300686 30.61153707 22.82177366 33.6144808 22.85351562 36.61914062 C22.85512794 38.53645777 22.85454954 40.45377826 22.8515625 42.37109375 C22.86279648 43.26501328 22.87403046 44.1589328 22.88560486 45.0799408 C22.82415847 50.61021427 22.05095647 53.80364976 18.35546875 58.1875 C16.28515625 59.83203125 16.28515625 59.83203125 14.23046875 61 C13.54726563 61.39832031 12.8640625 61.79664063 12.16015625 62.20703125 C9.05066671 63.89638596 6.79483495 64.45145133 3.26171875 64.8359375 C2.23046875 64.95453125 1.19921875 65.073125 0.13671875 65.1953125 C-2.01905851 65.43655424 -4.1753032 65.67366168 -6.33203125 65.90625 C-24.69151481 68.04213051 -39.02978503 75.44575057 -50.81640625 89.83984375 C-59.60799357 102.03159625 -64.27345106 114.76604414 -64.15005493 129.86303711 C-64.15614505 131.08172202 -64.16223517 132.30040693 -64.16850984 133.55602169 C-64.18133095 136.90373009 -64.17653856 140.25053934 -64.16401863 143.59818983 C-64.15489818 147.22199584 -64.1690156 150.84572331 -64.18028259 154.46951294 C-64.19672906 160.73900024 -64.19894162 167.00835994 -64.19151688 173.27786255 C-64.18096387 182.35537641 -64.19443713 191.43273526 -64.21398143 200.51022851 C-64.24527173 215.2577961 -64.26032193 230.00533079 -64.26367188 244.75292969 C-64.26387586 245.63419915 -64.26407985 246.5154686 -64.26429002 247.4234432 C-64.26449339 248.30579598 -64.26469676 249.18814875 -64.26490629 250.09723949 C-64.26782611 262.60552143 -64.27463085 275.11379319 -64.28613281 287.62207031 C-64.28693811 288.50225747 -64.2877434 289.38244464 -64.2885731 290.28930414 C-64.30234558 304.9844348 -64.32414641 319.6795474 -64.35000265 334.37466145 C-64.36541061 343.42551831 -64.37266612 352.47631594 -64.36920772 361.52718568 C-64.36716178 367.73088267 -64.37185411 373.93455025 -64.38175108 380.13823962 C-64.38716277 383.71240554 -64.38929333 387.28649516 -64.3825779 390.86066055 C-64.37531733 394.74446743 -64.38350937 398.62815899 -64.39297485 402.51196289 C-64.38831164 403.62832595 -64.38364843 404.74468901 -64.3788439 405.89488125 C-64.52392121 436.50093936 -78.53989546 464.44788863 -99.86547852 485.8515625 C-106.73941679 492.46049956 -119.87065597 503.1875 -129.64453125 503.1875 C-129.64453125 503.8475 -129.64453125 504.5075 -129.64453125 505.1875 C-128.77441406 505.28804687 -127.90429688 505.38859375 -127.0078125 505.4921875 C-111.9910344 508.59670144 -94.49496314 524.93924778 -85.70703125 537.3125 C-84.66408061 538.92339406 -83.64266505 540.54845924 -82.64453125 542.1875 C-82.1134375 543.033125 -81.58234375 543.87875 -81.03515625 544.75 C-79.52356408 547.2044665 -78.07192076 549.68330788 -76.64453125 552.1875 C-76.28617188 552.7959375 -75.9278125 553.404375 -75.55859375 554.03125 C-66.14166524 571.2077276 -64.49842087 591.24578272 -64.49304199 610.40710449 C-64.48669338 612.14347522 -64.48669338 612.14347522 -64.4802165 613.91492414 C-64.46730415 617.75513316 -64.4611923 621.59532149 -64.45507812 625.43554688 C-64.44766832 628.2045167 -64.43878757 630.97348132 -64.4299469 633.7424469 C-64.4116847 639.68665576 -64.39680417 645.63086513 -64.38417053 651.5750885 C-64.36578462 660.18337881 -64.34112225 668.79164277 -64.31479663 677.39991206 C-64.2720971 691.38818154 -64.23296299 705.37645831 -64.19677734 719.36474609 C-64.19353314 720.61811973 -64.19353314 720.61811973 -64.1902234 721.89681405 C-64.17270434 728.67553947 -64.15535881 735.45426533 -64.13802052 742.23299122 C-64.12285655 748.15874566 -64.10762325 754.08449991 -64.09228516 760.01025391 C-64.08904685 761.26208506 -64.08904685 761.26208506 -64.08574313 762.53920573 C-64.0495671 776.47839354 -64.00961083 790.41756808 -63.96698236 804.35673761 C-63.94091989 812.93854998 -63.91823831 821.52035846 -63.89999878 830.10219109 C-63.88727877 835.98537291 -63.87113323 841.86853901 -63.85234964 847.75170457 C-63.84165475 851.13965598 -63.833048 854.52757821 -63.82765388 857.91554451 C-63.82156101 861.59968976 -63.80949061 865.28377087 -63.79602051 868.96789551 C-63.79572452 870.02229938 -63.79542853 871.07670325 -63.79512358 872.16305876 C-63.95254097 887.60354333 -63.95254097 887.60354333 -59.64453125 902.1875 C-59.11214844 903.31671875 -58.57976562 904.4459375 -58.03125 905.609375 C-55.31408873 911.24700756 -52.59150891 916.30365731 -48.64453125 921.1875 C-48.64453125 921.8475 -48.64453125 922.5075 -48.64453125 923.1875 C-48.05414062 923.45175781 -47.46375 923.71601562 -46.85546875 923.98828125 C-44.5688785 925.22853427 -43.11247042 926.55290855 -41.26953125 928.375 C-30.08611583 938.29510368 -16.07325513 942.13963535 -1.39892578 942.33374023 C7.00963839 942.47227088 12.21305564 943.06112709 18.640625 949.08203125 C21.32325528 952.37573904 22.59690705 955.03052864 22.66186523 959.29418945 C22.67785263 960.09214432 22.69384003 960.89009918 22.71031189 961.7122345 C22.71567459 962.56645493 22.72103729 963.42067535 22.7265625 964.30078125 C22.73559097 965.18855759 22.74461945 966.07633392 22.75392151 966.99101257 C22.76841382 968.8679162 22.77730822 970.74487024 22.78100586 972.62182617 C22.79288512 975.47988008 22.84206442 978.33576201 22.89257812 981.19335938 C22.90204508 983.02082284 22.90927881 984.84829952 22.9140625 986.67578125 C22.93359482 987.52392899 22.95312714 988.37207672 22.97325134 989.2459259 C22.92819894 995.23102707 21.46732956 998.81759773 17.35546875 1003.1875 C12.79445793 1007.11327254 9.07690688 1007.77079467 3.23046875 1007.5625 C2.45493652 1007.54743408 1.6794043 1007.53236816 0.88037109 1007.5168457 C-24.98883323 1006.80184175 -50.84363193 1001.27932299 -73.14453125 987.5625 C-73.81484375 987.15773438 -74.48515625 986.75296875 -75.17578125 986.3359375 C-75.66046875 985.95695312 -76.14515625 985.57796875 -76.64453125 985.1875 C-76.64453125 984.5275 -76.64453125 983.8675 -76.64453125 983.1875 C-77.36769531 982.94644531 -78.09085938 982.70539062 -78.8359375 982.45703125 C-82.02934183 981.01355919 -84.03325336 979.27077069 -86.58203125 976.875 C-89.20935201 974.42255637 -91.8120477 972.05361875 -94.62109375 969.80859375 C-97.92208917 967.08003139 -100.48488175 963.95203986 -103.08203125 960.5625 C-103.55938721 959.9442334 -104.03674316 959.3259668 -104.52856445 958.68896484 C-125.77475005 930.85161262 -133.63918289 900.37172687 -133.39614987 865.6466949 C-133.37808755 862.08724109 -133.39550523 858.52791291 -133.40821838 854.96846008 C-133.42558717 848.83117252 -133.42180224 842.69420968 -133.40297699 836.55693054 C-133.37594104 827.67422934 -133.38449292 818.79182216 -133.40146556 809.9091087 C-133.42828714 795.47696891 -133.43019608 781.04494539 -133.41455078 766.61279297 C-133.39947828 752.63394198 -133.39137611 738.65512908 -133.39599609 724.67626953 C-133.39627594 723.81273654 -133.39655579 722.94920355 -133.39684412 722.0595029 C-133.40017241 712.62648556 -133.40629114 703.19347312 -133.41571426 693.7604599 C-133.4165373 692.9311643 -133.41736034 692.1018687 -133.41820832 691.24744293 C-133.42153602 687.93224449 -133.42489379 684.61704614 -133.42860773 681.30184811 C-133.4393839 671.62051673 -133.44155369 661.93927609 -133.42791471 652.25794673 C-133.41957928 646.1964367 -133.41767413 640.13494857 -133.42077747 634.07343364 C-133.42223537 630.58055255 -133.42030048 627.0877551 -133.4094944 623.59488869 C-133.39936412 619.80485577 -133.4014533 616.01501436 -133.40643311 612.22497559 C-133.40040565 611.1281963 -133.3943782 610.03141702 -133.3881681 608.901402 C-133.41091151 602.72138275 -134.02401933 597.15151379 -135.64453125 591.1875 C-135.84433594 590.33800781 -136.04414063 589.48851562 -136.25 588.61328125 C-141.90565307 568.07832614 -154.7710208 554.3774271 -172.87573242 543.89575195 C-180.27129516 539.92684187 -187.81725715 538.27779581 -195.98632812 536.60351562 C-202.41773145 535.15389773 -207.38517691 533.44421673 -211.64453125 528.1875 C-212.9768436 524.19056294 -212.80710295 520.33976878 -212.8125 516.171875 C-212.8158284 515.28268372 -212.8191568 514.39349243 -212.82258606 513.47735596 C-212.82764964 511.59444699 -212.82999456 509.71152905 -212.82983398 507.82861328 C-212.83201232 504.96241225 -212.85015145 502.09660126 -212.86914062 499.23046875 C-212.87207638 497.39843881 -212.87405996 495.56640705 -212.875 493.734375 C-212.88218552 492.88309021 -212.88937103 492.03180542 -212.89677429 491.15472412 C-212.87434595 485.24524226 -212.74368651 479.54904967 -208.64453125 474.9375 C-203.49684136 471.9346809 -197.92022429 470.7271498 -192.15234375 469.359375 C-179.68554572 466.30099211 -168.53407915 461.60455988 -158.64453125 453.1875 C-158.12383057 452.76960205 -157.60312988 452.3517041 -157.06665039 451.92114258 C-152.71222496 448.34860061 -149.25362689 444.55820468 -145.95703125 440 C-145.48007812 439.34507568 -145.003125 438.69015137 -144.51171875 438.01538086 C-140.75057779 432.68167144 -138.48138717 427.4419944 -136.64453125 421.1875 C-135.88998878 419.50585927 -135.88998878 419.50585927 -135.12020302 417.79024601 C-133.03831595 412.23181184 -133.22403452 406.75454702 -133.25253296 400.88340759 C-133.2465917 399.65644545 -133.24065044 398.4294833 -133.23452914 397.16534048 C-133.22107982 393.77629485 -133.22092235 390.3877273 -133.22645044 386.99869144 C-133.22913906 383.33742066 -133.21452767 379.67621354 -133.20201111 376.01496887 C-133.18264934 369.67558208 -133.17405061 363.33625471 -133.17271042 356.99683952 C-133.17066829 347.82357494 -133.15118595 338.65041094 -133.1273125 329.47718019 C-133.08893042 314.58302329 -133.06310821 299.6888732 -133.04589844 284.79467773 C-133.02916371 270.34642576 -133.00898243 255.89818872 -132.98242188 241.44995117 C-132.97997174 240.11489258 -132.97997174 240.11489258 -132.97747211 238.7528631 C-132.95950183 229.03440202 -132.94014739 219.31594441 -132.91916847 209.59748936 C-132.91732705 208.74317443 -132.91548563 207.88885951 -132.91358841 207.00865625 C-132.90620865 203.59329305 -132.8988147 200.1779299 -132.89124461 196.76256711 C-132.869128 186.76819825 -132.85131555 176.77384375 -132.8412918 166.77945507 C-132.83490553 160.51128603 -132.82535331 154.24312745 -132.81332324 147.9749667 C-132.80654733 144.3589397 -132.80146332 140.74292959 -132.80073738 137.1268959 C-132.79994453 133.20611805 -132.79158916 129.28537676 -132.78256226 125.36460876 C-132.78416463 123.6524523 -132.78416463 123.6524523 -132.78579938 121.90570682 C-132.73550237 107.27847112 -132.73550237 107.27847112 -130.64453125 105.1875 C-130.34151801 103.75643748 -130.07810476 102.31694479 -129.83203125 100.875 C-124.05709034 71.1572384 -105.24717765 44.17152088 -81.03125 26.25390625 C-78.28785562 24.45134211 -75.50347816 22.80107231 -72.64453125 21.1875 C-72.02449219 20.83445801 -71.40445313 20.48141602 -70.765625 20.11767578 C-48.39890987 7.48522227 -25.6948486 1.04386953 0 0 Z " fill="#4D04D0" transform="translate(588.64453125,364.8125)"/>
<path d="M0 0 C0.99178253 -0.01929062 1.98356506 -0.03858124 3.00540161 -0.05845642 C7.55092592 -0.1163907 12.09629423 -0.16549857 16.64208984 -0.19628906 C19.03383854 -0.21784073 21.42550897 -0.25190936 23.81689453 -0.29882812 C27.27525874 -0.36603423 30.73199164 -0.39332571 34.19091797 -0.41235352 C35.25061798 -0.44018417 36.31031799 -0.46801483 37.40213013 -0.49668884 C44.85721665 -0.47622355 49.47860892 1.30202558 55.12060547 6.20874023 C58.07391863 9.60952509 58.60313204 12.49033328 58.40185547 16.99389648 C57.23073998 26.21643098 52.8657924 34.79722007 49.12060547 43.20874023 C48.46060547 43.20874023 47.80060547 43.20874023 47.12060547 43.20874023 C46.74935547 44.69374023 46.74935547 44.69374023 46.37060547 46.20874023 C45.35632456 49.78770286 43.86179354 52.93822207 42.12060547 56.21655273 C40.97484472 58.49912298 40.06092356 60.83452713 39.12060547 63.20874023 C38.35895547 64.90040496 37.58764317 66.5877435 36.80810547 68.27124023 C34.98956772 72.23895896 33.27112355 76.23085529 31.62060547 80.27124023 C30.13427435 83.88551747 28.56134291 87.37434505 26.74560547 90.83374023 C24.40609903 95.38156584 22.60743817 100.05543975 20.80810547 104.83374023 C18.29662833 111.47627087 15.44399174 117.78274072 12.17871094 124.0847168 C9.08881623 130.10934009 6.49416177 136.30166887 3.91210938 142.55737305 C1.92458839 147.3545662 -0.20333007 152.00728031 -2.59423828 156.61889648 C-4.34278071 160.14255494 -5.92612866 163.73116786 -7.50439453 167.33374023 C-7.79386963 167.99140381 -8.08334473 168.64906738 -8.3815918 169.32666016 C-10.37162493 173.90104791 -12.15870132 178.52636901 -13.87939453 183.20874023 C-14.53939453 183.20874023 -15.19939453 183.20874023 -15.87939453 183.20874023 C-16.00830078 183.77334961 -16.13720703 184.33795898 -16.27001953 184.91967773 C-17.84723596 190.84434972 -20.44371897 196.46528971 -23.25439453 201.89624023 C-25.76806423 206.78393132 -27.78294366 211.81279274 -29.73632812 216.94384766 C-31.15534711 220.61765964 -32.84977278 223.84615068 -34.87939453 227.20874023 C-35.58947118 229.02570108 -36.25627498 230.86015224 -36.87939453 232.70874023 C-38.17733848 236.55930729 -39.78409912 239.73685232 -41.87939453 243.20874023 C-42.48454552 244.7762679 -43.04547244 246.36140818 -43.56689453 247.95874023 C-45.58527928 253.69804038 -48.11597314 259.1040052 -50.73876953 264.58325195 C-53.42424865 270.20410894 -55.96192706 275.8757741 -58.4362793 281.59228516 C-60.12254245 285.48632108 -61.85149308 289.3557359 -63.62939453 293.20874023 C-65.02036696 296.23988211 -66.30761149 299.26028123 -67.44189453 302.39624023 C-68.63957781 305.69652304 -70.10819732 308.76015523 -71.71142578 311.88061523 C-75.34398644 319.12143849 -78.61993942 326.55129235 -81.87939453 333.96655273 C-82.61416828 335.61405324 -83.36680122 337.25361832 -84.12939453 338.88842773 C-86.7749685 344.57326228 -89.03225079 350.21800379 -90.87939453 356.20874023 C-91.20939453 357.19874023 -91.53939453 358.18874023 -91.87939453 359.20874023 C-92.53939453 359.20874023 -93.19939453 359.20874023 -93.87939453 359.20874023 C-94.16814453 360.26061523 -94.45689453 361.31249023 -94.75439453 362.39624023 C-95.65164647 365.43692735 -96.64362872 368.29586367 -97.87939453 371.20874023 C-98.53939453 371.20874023 -99.19939453 371.20874023 -99.87939453 371.20874023 C-100.01442383 371.78672363 -100.14945313 372.36470703 -100.28857422 372.96020508 C-101.26957497 376.69368315 -102.7301815 380.24008064 -104.12939453 383.83374023 C-104.44368408 384.64262695 -104.75797363 385.45151367 -105.08178711 386.28491211 C-107.06892967 391.33001533 -109.24162863 396.18771324 -111.76611328 400.98999023 C-112.95207957 403.35360023 -113.92440466 405.74326838 -114.87939453 408.20874023 C-116.57614317 412.58456567 -118.58636883 416.72431348 -120.72314453 420.90014648 C-122.24815171 423.94500879 -123.54521317 427.07631444 -124.87939453 430.20874023 C-125.49715409 431.44156172 -126.12265876 432.67052183 -126.75439453 433.89624023 C-128.92572023 438.17309388 -130.71583126 442.58030124 -132.53173828 447.01733398 C-133.87923673 450.20836653 -135.33183455 453.32964518 -136.81689453 456.45874023 C-140.28766242 463.87807002 -143.09355448 471.51310405 -145.87939453 479.20874023 C-146.53939453 479.20874023 -147.19939453 479.20874023 -147.87939453 479.20874023 C-147.97607422 480.04791992 -148.07275391 480.88709961 -148.17236328 481.75170898 C-148.97173989 485.66026311 -150.44455278 488.97023482 -152.19189453 492.52124023 C-152.83335578 493.85286898 -153.47398523 495.18489874 -154.11376953 496.51733398 C-154.42121094 497.15396973 -154.72865234 497.79060547 -155.04541016 498.4465332 C-156.07941412 500.63138116 -157.01315694 502.85240881 -157.94189453 505.08374023 C-161.84770441 513.9135412 -166.75661908 520.75392652 -175.86090088 524.56466675 C-179.45787875 525.71241278 -183.02847544 525.69677622 -186.77783203 525.71264648 C-187.61222809 525.72263168 -188.44662415 525.73261688 -189.30630493 525.74290466 C-191.06271442 525.75801764 -192.81920915 525.76513258 -194.57568359 525.76464844 C-197.24088546 525.77120699 -199.90235087 525.8257451 -202.56689453 525.88256836 C-217.98685628 526.03510599 -217.98685628 526.03510599 -224.3137207 520.79443359 C-225.08872925 520.00951538 -225.08872925 520.00951538 -225.87939453 519.20874023 C-226.39284424 518.71059814 -226.90629395 518.21245605 -227.43530273 517.69921875 C-232.6934439 512.02667028 -233.32341083 506.05687574 -233.27026367 498.63305664 C-232.54814108 492.30670342 -229.69447179 486.8749304 -226.94189453 481.20874023 C-226.33598019 479.91726306 -225.73241173 478.62468288 -225.13110352 477.33105469 C-223.93820528 474.77151065 -222.73466436 472.21750744 -221.52001953 469.66821289 C-219.43428408 465.27016656 -217.42827723 460.83979172 -215.44189453 456.39624023 C-215.1019043 455.64270264 -214.76191406 454.88916504 -214.41162109 454.11279297 C-210.16522071 444.68328624 -206.04977837 435.19526606 -201.92651367 425.71142578 C-198.7801037 418.4850024 -195.55204817 411.30684289 -192.23022461 404.15869141 C-190.32870482 400.00614059 -188.56133441 395.8041302 -186.81689453 391.58374023 C-184.32934193 385.62047785 -181.80090672 379.68871802 -179.08251953 373.82592773 C-176.17520047 367.50156483 -173.40394389 361.12149442 -170.68408203 354.71459961 C-167.17210457 346.44426108 -163.53827882 338.26638485 -159.69189453 330.14624023 C-157.46984938 325.38471491 -155.43262014 320.54482522 -153.37939453 315.70874023 C-149.72668798 307.11540076 -145.89641985 298.63772926 -141.87939453 290.20874023 C-137.31704135 280.62578674 -132.82939837 271.06475944 -128.87939453 261.20874023 C-128.21939453 261.20874023 -127.55939453 261.20874023 -126.87939453 261.20874023 C-126.92499512 260.47937256 -126.9705957 259.75000488 -127.01757812 258.99853516 C-126.86366313 255.89113824 -126.15060478 254.28326048 -124.66845703 251.57202148 C-121.42620464 245.40854311 -118.77783237 239.04785898 -116.09814453 232.62475586 C-114.26080913 228.26900384 -112.32590508 224.25837735 -109.87939453 220.20874023 C-109.06240473 218.05905278 -108.29487455 215.89017865 -107.56689453 213.70874023 C-105.53135346 207.86867597 -103.18394102 202.31853666 -100.53955078 196.73217773 C-98.6420813 192.70507779 -96.813652 188.65106662 -95.00439453 184.58374023 C-94.66762695 183.82697998 -94.33085938 183.07021973 -93.98388672 182.29052734 C-91.52294438 176.73008061 -89.15672558 171.13354242 -86.81689453 165.52124023 C-82.73327099 155.73751724 -78.39471369 146.08810059 -73.56689453 136.64624023 C-72.03025314 133.5160448 -70.95899514 130.51501709 -69.87939453 127.20874023 C-69.00131098 125.12385467 -68.07073069 123.06628227 -67.13720703 121.00561523 C-65.88591258 118.22323379 -64.66813991 115.42732132 -63.4543457 112.62841797 C-60.85139216 106.63124165 -58.18179963 100.67788427 -55.37939453 94.77124023 C-52.84356765 89.42200856 -50.53256627 84.01042368 -48.31689453 78.52124023 C-45.98116342 72.7397594 -43.41518635 67.18930505 -40.55126953 61.64624023 C-37.86082471 56.11448452 -35.50472315 50.43983531 -33.12597656 44.76831055 C-31.44237671 40.77228742 -29.72888683 36.83229294 -27.75439453 32.97045898 C-26.05820123 29.65080221 -24.74365895 26.29127853 -23.50439453 22.77124023 C-20.16835583 13.9836261 -15.79209421 6.57328239 -7.87939453 1.20874023 C-4.97726187 0.24136268 -3.02497482 0.05506336 0 0 Z " fill="#ff30cb" transform="translate(1241.87939453125,626.791259765625)"/>
</svg>
